<?xml version="1.0" encoding="UTF-8"?>
<!DOCTYPE svg PUBLIC "-//W3C//DTD SVG 1.1//EN" "http://www.w3.org/Graphics/SVG/1.1/DTD/svg11.dtd">
<!-- Creator: CorelDRAW -->
<svg xmlns="http://www.w3.org/2000/svg" xml:space="preserve" width="160px" height="90px" version="1.1" style="shape-rendering:geometricPrecision; text-rendering:geometricPrecision; image-rendering:optimizeQuality; fill-rule:evenodd; clip-rule:evenodd"
viewBox="0 0 160 90"
 xmlns:xlink="http://www.w3.org/1999/xlink"
 xmlns:xodm="http://www.corel.com/coreldraw/odm/2003">
 <defs>
  <style type="text/css">
   <![CDATA[
    .fil2 {fill:#72C9C0;fill-rule:nonzero}
    .fil3 {fill:#16BAAF;fill-rule:nonzero}
    .fil1 {fill:url(#id0)}
    .fil0 {fill:url(#id1)}
    .fil4 {fill:url(#id2)}
   ]]>
  </style>
  <linearGradient id="id0" gradientUnits="userSpaceOnUse" x1="82.82" y1="63.36" x2="106.77" y2="77.17">
   <stop offset="0" style="stop-opacity:1; stop-color:#289D91"/>
   <stop offset="0.309804" style="stop-opacity:1; stop-color:#289D91"/>
   <stop offset="0.419608" style="stop-opacity:1; stop-color:#4DB3A8"/>
   <stop offset="0.619608" style="stop-opacity:1; stop-color:#72C9C0"/>
   <stop offset="1" style="stop-opacity:1; stop-color:#72C9C0"/>
  </linearGradient>
  <linearGradient id="id1" gradientUnits="userSpaceOnUse" xlink:href="#id0" x1="86.3" y1="57.18" x2="110.23" y2="71.18">
  </linearGradient>
  <linearGradient id="id2" gradientUnits="userSpaceOnUse" x1="52.21" y1="32.91" x2="78.78" y2="33.69">
   <stop offset="0" style="stop-opacity:1; stop-color:#289D91"/>
   <stop offset="0.388235" style="stop-opacity:1; stop-color:#289D91"/>
   <stop offset="0.580392" style="stop-opacity:1; stop-color:#4DB3A8"/>
   <stop offset="0.701961" style="stop-opacity:1; stop-color:#72C9C0"/>
   <stop offset="1" style="stop-opacity:1; stop-color:#72C9C0"/>
  </linearGradient>
 </defs>
 <g id="Capa_x0020_1">
  <metadata id="CorelCorpID_0Corel-Layer"/>
  <g id="_1970725266064">
   <path class="fil0" d="M105.5 68.68c0.26,-0.02 0.52,-0.04 0.78,-0.07 -0.26,0.03 -0.52,0.05 -0.78,0.07z"/>
   <path class="fil1" d="M82.23 69.89c6.14,5.22 13.71,7.85 21.3,7.9l0 -9.04c0.05,0 0.1,0.01 0.15,0.01 0.47,0 0.94,-0.02 1.4,-0.05 -6.48,0.35 -13.06,-1.89 -18.08,-6.73 -1.11,2.93 -2.74,5.6 -4.77,7.91z"/>
   <path class="fil2" d="M103.65 11.24c-10.82,0 -20.43,5.17 -26.51,13.17l7.85 4.73c4.44,-5.39 11.16,-8.83 18.69,-8.83 12.08,0 22.1,8.85 23.92,20.42l9.12 0c-1.88,-16.59 -15.97,-29.49 -33.07,-29.49z"/>
   <path class="fil2" d="M106.28 68.62c-0.26,0.02 -0.52,0.04 -0.78,0.06 -0.14,0.01 -0.28,0.02 -0.42,0.03 -0.46,0.03 -0.93,0.05 -1.4,0.05 -0.05,0 -0.1,-0.01 -0.15,-0.01l0 9.04 0 0.03c0.04,0 0.08,0 0.12,0 16.78,0 30.65,-12.41 32.95,-28.55l-9.17 0c-2.03,10.28 -10.57,18.22 -21.15,19.35z"/>
   <polygon class="fil3" points="22.72,36.26 34.93,36.26 51.2,19.59 51.2,11.27 14.59,11.27 14.59,19.7 39.28,19.7 "/>
   <path class="fil4" d="M51.44 39.32c3.06,-2.57 7,-4.12 11.31,-4.12 3.46,0 6.68,1 9.41,2.73l5.84 -6.17c2.59,1.89 4.82,4.25 6.56,6.96l0.05 0c-4.42,-6.87 -11.98,-11.51 -20.65,-11.91l-12.52 12.51z"/>
   <path class="fil3" d="M51.17 39.56l0.03 0 0.25 -0.24 12.51 -12.52 15.53 -15.53 -12.3 0 -20.12 20.76 -5.29 5.46 -2.02 2.07 0.2 0 5.51 -5.8c2.2,1.6 4.13,3.57 5.7,5.8z"/>
   <path class="fil3" d="M41.05 67.15c-2.83,2.18 -6.37,3.47 -10.21,3.47 -9.28,0 -16.79,-7.51 -16.79,-16.79 0,-0.41 0.02,-0.81 0.04,-1.22l-8.07 0c-0.02,0.41 -0.03,0.81 -0.03,1.22 0,13.72 11.13,24.85 24.85,24.85 5.94,0 11.4,-2.1 15.68,-5.58 -2.12,-1.69 -3.97,-3.69 -5.47,-5.95z"/>
   <path class="fil3" d="M52.06 66.74c2.3,-3.76 3.62,-8.18 3.62,-12.91 0,-5.31 -1.67,-10.23 -4.51,-14.27 -1.57,-2.23 -3.5,-4.2 -5.7,-5.8l-5.51 5.8 -0.1 0.12c4.67,2.98 7.77,8.2 7.77,14.15 0,2.07 -0.38,4.06 -1.07,5.89 1.21,2.79 3.12,5.21 5.5,7.02z"/>
   <path class="fil2" d="M88.69 52.77c0,-5.18 -1.52,-10 -4.13,-14.05 -1.74,-2.71 -3.97,-5.07 -6.56,-6.96l-5.85 6.17 -0.02 0.03c4.89,3.12 8.13,8.58 8.13,14.81 0,9.7 -7.86,17.56 -17.56,17.56 -4,0 -7.69,-1.34 -10.64,-3.59 -2.38,-1.81 -4.29,-4.23 -5.5,-7.02 -0.92,-2.14 -1.43,-4.48 -1.43,-6.95 0,-0.03 0,-0.06 0,-0.09l-8.42 0c0,0.03 0,0.06 0,0.09 0,5.32 1.6,10.26 4.34,14.38 1.5,2.26 3.35,4.26 5.47,5.95 4.44,3.54 10.06,5.66 16.18,5.66 7.79,0 14.77,-3.44 19.53,-8.87 2.03,-2.31 3.65,-4.98 4.77,-7.91 1.08,-2.86 1.69,-5.97 1.69,-9.21z"/>
   <path class="fil3" d="M93.7 47.34c0.94,0 1.74,-0.67 1.74,-2.34 0,-1.67 -0.8,-2.34 -1.74,-2.34 -0.94,0 -1.74,0.67 -1.74,2.34 0,1.67 0.8,2.34 1.74,2.34zm-2.36 -2.34c0,-2.06 1,-2.98 2.36,-2.98 1.36,0 2.36,0.92 2.36,2.98 0,2.06 -1,2.98 -2.36,2.98 -1.36,0 -2.36,-0.92 -2.36,-2.98z"/>
   <path class="fil3" d="M96.64 45c0,-2.06 0.98,-2.98 2.32,-2.98 1.09,0 1.94,0.62 2.16,2l-0.65 0c-0.19,-0.96 -0.81,-1.36 -1.52,-1.36 -0.92,0 -1.69,0.67 -1.69,2.34 0,1.67 0.77,2.34 1.69,2.34 0.69,0 1.31,-0.39 1.5,-1.32l0.65 0c-0.22,1.35 -1.06,1.96 -2.14,1.96 -1.34,0 -2.32,-0.92 -2.32,-2.98z"/>
   <path class="fil3" d="M101.99 45.26l0 -3.16 0.58 0 0 3.16c0,1.67 0.58,2.08 1.37,2.08 0.81,0 1.38,-0.41 1.38,-2.08l0 -3.16 0.59 0 0 3.16c0,2.07 -0.76,2.72 -1.97,2.72 -1.19,0 -1.95,-0.65 -1.95,-2.72z"/>
   <path class="fil3" d="M107.65 42.74l0 2.6 1.2 0c0.95,0 1.39,-0.38 1.39,-1.33 0,-0.94 -0.44,-1.27 -1.39,-1.27l-1.2 0zm-0.58 -0.64l1.78 0c1.36,0 2.01,0.56 2.01,1.91 0,1.37 -0.65,1.97 -2.01,1.97l-1.2 0 0 1.92 -0.58 0 0 -5.8z"/>
   <path class="fil3" d="M112.16 45.7l1.88 0 -0.94 -2.83 -0.94 2.83zm0.59 -3.6l0.69 0 1.97 5.8 -0.64 0 -0.51 -1.56 -2.32 0 -0.52 1.56 -0.63 0 1.96 -5.8z"/>
   <path class="fil3" d="M115.55 45c0,-2.06 0.99,-2.98 2.32,-2.98 1.09,0 1.94,0.62 2.16,2l-0.65 0c-0.19,-0.96 -0.81,-1.36 -1.51,-1.36 -0.92,0 -1.7,0.67 -1.7,2.34 0,1.67 0.78,2.34 1.7,2.34 0.69,0 1.3,-0.39 1.5,-1.32l0.64 0c-0.22,1.35 -1.06,1.96 -2.14,1.96 -1.33,0 -2.32,-0.92 -2.32,-2.98z"/>
   <polygon class="fil3" points="120.9,42.1 121.48,42.1 121.48,47.9 120.9,47.9 "/>
   <path class="fil3" d="M124.71 47.34c0.95,0 1.75,-0.67 1.75,-2.34 0,-1.67 -0.8,-2.34 -1.75,-2.34 -0.94,0 -1.73,0.67 -1.73,2.34 0,1.67 0.79,2.34 1.73,2.34zm-2.35 -2.34c0,-2.06 1,-2.98 2.35,-2.98 1.37,0 2.37,0.92 2.37,2.98 0,2.06 -1,2.98 -2.37,2.98 -1.35,0 -2.35,-0.92 -2.35,-2.98z"/>
   <polygon class="fil3" points="127.95,47.9 127.95,42.1 128.72,42.1 131.27,46.98 131.27,42.1 131.85,42.1 131.85,47.9 131.09,47.9 128.53,43 128.53,47.9 "/>
   <path class="fil3" d="M133.88 45.7l1.88 0 -0.94 -2.83 -0.94 2.83zm0.59 -3.6l0.69 0 1.97 5.8 -0.64 0 -0.51 -1.56 -2.32 0 -0.52 1.56 -0.63 0 1.96 -5.8z"/>
   <polygon class="fil3" points="137.78,42.1 138.36,42.1 138.36,47.26 140.93,47.26 140.93,47.9 137.78,47.9 "/>
   <polygon class="fil3" points="143.55,42.1 144.53,42.1 144.53,47.9 143.55,47.9 "/>
   <path class="fil3" d="M146.39 43.12l0 2.01 1.01 0c0.66,0 1.02,-0.31 1.02,-1.03 0,-0.7 -0.36,-0.98 -1.02,-0.98l-1.01 0zm-0.98 -1.02l1.99 0c1.37,0 2.04,0.57 2.04,1.99 0,1.41 -0.67,2.04 -2.04,2.04l-1.01 0 0 1.77 -0.98 0 0 -5.8z"/>
   <path class="fil3" d="M149.88 46.07l1.01 0c0.03,0.5 0.31,0.93 1.1,0.93 0.71,0 1,-0.23 1,-0.7 0,-1.1 -3.02,-0.16 -3.02,-2.55 0,-1.11 0.71,-1.73 1.98,-1.73 1.38,0 1.9,0.79 1.93,1.87l-0.98 0c-0.05,-0.44 -0.26,-0.89 -0.99,-0.89 -0.59,0 -0.92,0.22 -0.92,0.7 0,1.33 3.02,0.32 3.02,2.59 0,1.17 -0.66,1.69 -2.04,1.69 -1.54,0 -2.04,-0.79 -2.09,-1.91z"/>
  </g>
 </g>
</svg>
